<?xml version="1.0" encoding="UTF-8"?>
<svg xmlns="http://www.w3.org/2000/svg" xmlns:xlink="http://www.w3.org/1999/xlink" width="242.634pt" height="174.672pt" viewBox="0 0 242.634 174.672" version="1.2">
<defs>
<g>
<symbol overflow="visible" id="glyph0-0">
<path style="stroke:none;" d=""/>
</symbol>
<symbol overflow="visible" id="glyph0-1">
<path style="stroke:none;" d="M 2.078125 -2.40625 C 3.15625 -2.421875 3.421875 -2.4375 3.78125 -2.578125 C 4.421875 -2.828125 4.765625 -3.3125 4.765625 -3.921875 C 4.765625 -4.84375 4.015625 -5.375 2.6875 -5.375 L 0.125 -5.375 L 0.125 -5.171875 C 0.6875 -5.125 0.796875 -5 0.796875 -4.453125 L 0.796875 -0.9375 C 0.796875 -0.4375 0.6875 -0.28125 0.3125 -0.234375 C 0.296875 -0.234375 0.21875 -0.21875 0.125 -0.203125 L 0.125 0 L 2.78125 0 L 2.78125 -0.203125 C 2.15625 -0.28125 2.078125 -0.34375 2.078125 -0.9375 Z M 2.078125 -4.8125 C 2.078125 -5 2.21875 -5.09375 2.484375 -5.09375 C 3.140625 -5.09375 3.40625 -4.75 3.40625 -3.890625 C 3.40625 -3.390625 3.3125 -3.078125 3.109375 -2.90625 C 2.90625 -2.75 2.640625 -2.6875 2.078125 -2.6875 Z M 2.078125 -4.8125 "/>
</symbol>
<symbol overflow="visible" id="glyph0-2">
<path style="stroke:none;" d="M 1.734375 -3.671875 L 0.234375 -3.671875 L 0.234375 -3.46875 C 0.578125 -3.421875 0.65625 -3.328125 0.65625 -3 L 0.65625 -0.671875 C 0.65625 -0.34375 0.578125 -0.25 0.234375 -0.1875 L 0.234375 0 L 2.34375 0 L 2.34375 -0.1875 C 1.859375 -0.21875 1.765625 -0.328125 1.765625 -0.8125 L 1.765625 -2.328125 C 1.765625 -2.734375 1.984375 -3.078125 2.25 -3.078125 C 2.3125 -3.078125 2.390625 -3.015625 2.46875 -2.890625 C 2.625 -2.6875 2.75 -2.609375 2.953125 -2.609375 C 3.25 -2.609375 3.453125 -2.828125 3.453125 -3.140625 C 3.453125 -3.5 3.1875 -3.765625 2.8125 -3.765625 C 2.40625 -3.765625 2.109375 -3.546875 1.734375 -3.015625 Z M 1.734375 -3.671875 "/>
</symbol>
<symbol overflow="visible" id="glyph0-3">
<path style="stroke:none;" d="M 3.203125 -1 C 2.875 -0.609375 2.625 -0.46875 2.296875 -0.46875 C 1.984375 -0.46875 1.75 -0.609375 1.578125 -0.875 C 1.4375 -1.140625 1.375 -1.40625 1.34375 -1.953125 L 3.34375 -1.953125 C 3.296875 -2.609375 3.1875 -2.984375 2.921875 -3.296875 C 2.671875 -3.609375 2.296875 -3.765625 1.859375 -3.765625 C 0.859375 -3.765625 0.203125 -2.96875 0.203125 -1.8125 C 0.203125 -0.65625 0.84375 0.109375 1.84375 0.109375 C 2.484375 0.109375 2.875 -0.140625 3.390625 -0.875 Z M 1.296875 -2.25 C 1.328125 -3.203125 1.46875 -3.515625 1.859375 -3.515625 C 2.078125 -3.515625 2.234375 -3.390625 2.296875 -3.140625 C 2.34375 -2.984375 2.359375 -2.765625 2.375 -2.359375 L 2.375 -2.25 Z M 1.296875 -2.25 "/>
</symbol>
<symbol overflow="visible" id="glyph0-4">
<path style="stroke:none;" d="M 1.640625 -5.375 L 0.125 -5.375 L 0.125 -5.1875 C 0.40625 -5.15625 0.53125 -5.015625 0.53125 -4.71875 L 0.53125 -0.671875 C 0.53125 -0.375 0.390625 -0.21875 0.125 -0.1875 L 0.125 0 L 2.03125 0 L 2.03125 -0.1875 C 1.765625 -0.203125 1.640625 -0.34375 1.640625 -0.671875 Z M 1.640625 -5.375 "/>
</symbol>
<symbol overflow="visible" id="glyph0-5">
<path style="stroke:none;" d="M 1.65625 -3.671875 L 0.125 -3.671875 L 0.125 -3.46875 C 0.484375 -3.40625 0.546875 -3.328125 0.546875 -3 L 0.546875 -0.671875 C 0.546875 -0.34375 0.5 -0.28125 0.125 -0.1875 L 0.125 0 L 2.03125 0 L 2.03125 -0.1875 C 1.75 -0.234375 1.65625 -0.34375 1.65625 -0.640625 Z M 1.09375 -5.5 C 0.75 -5.5 0.484375 -5.21875 0.484375 -4.890625 C 0.484375 -4.53125 0.734375 -4.265625 1.09375 -4.265625 C 1.4375 -4.265625 1.703125 -4.53125 1.703125 -4.875 C 1.703125 -5.21875 1.4375 -5.5 1.09375 -5.5 Z M 1.09375 -5.5 "/>
</symbol>
<symbol overflow="visible" id="glyph0-6">
<path style="stroke:none;" d="M 1.640625 -3.671875 L 0.125 -3.671875 L 0.125 -3.46875 C 0.484375 -3.421875 0.5625 -3.328125 0.5625 -3 L 0.5625 -0.671875 C 0.5625 -0.34375 0.484375 -0.25 0.125 -0.1875 L 0.125 0 L 2.03125 0 L 2.03125 -0.1875 C 1.75 -0.234375 1.671875 -0.34375 1.671875 -0.640625 L 1.671875 -2.765625 C 1.671875 -2.8125 1.796875 -2.96875 1.90625 -3.046875 C 2.0625 -3.171875 2.203125 -3.234375 2.34375 -3.234375 C 2.640625 -3.234375 2.765625 -3.046875 2.765625 -2.5625 L 2.765625 -0.640625 C 2.765625 -0.3125 2.6875 -0.21875 2.390625 -0.1875 L 2.390625 0 L 4.25 0 L 4.25 -0.1875 C 3.96875 -0.21875 3.875 -0.34375 3.875 -0.640625 L 3.875 -2.765625 C 3.875 -2.8125 4 -2.953125 4.109375 -3.03125 C 4.28125 -3.171875 4.40625 -3.234375 4.546875 -3.234375 C 4.84375 -3.234375 4.96875 -3.03125 4.96875 -2.5625 L 4.96875 -0.640625 C 4.96875 -0.3125 4.890625 -0.21875 4.578125 -0.1875 L 4.578125 0 L 6.46875 0 L 6.46875 -0.1875 C 6.15625 -0.203125 6.078125 -0.296875 6.078125 -0.640625 L 6.078125 -2.640625 C 6.078125 -3.328125 5.65625 -3.765625 5 -3.765625 C 4.546875 -3.765625 4.25 -3.578125 3.828125 -3.0625 C 3.59375 -3.578125 3.3125 -3.765625 2.8125 -3.765625 C 2.3125 -3.765625 1.953125 -3.546875 1.640625 -3.0625 Z M 1.640625 -3.671875 "/>
</symbol>
<symbol overflow="visible" id="glyph0-7">
<path style="stroke:none;" d="M 1.6875 -3.671875 L 0.171875 -3.671875 L 0.171875 -3.46875 C 0.515625 -3.421875 0.59375 -3.34375 0.59375 -3 L 0.59375 -0.671875 C 0.59375 -0.328125 0.53125 -0.265625 0.171875 -0.1875 L 0.171875 0 L 2.078125 0 L 2.078125 -0.1875 C 1.796875 -0.234375 1.6875 -0.34375 1.6875 -0.640625 L 1.6875 -2.765625 C 1.6875 -2.796875 1.75 -2.875 1.828125 -2.953125 C 2 -3.140625 2.1875 -3.234375 2.375 -3.234375 C 2.65625 -3.234375 2.796875 -3.015625 2.796875 -2.5625 L 2.796875 -0.640625 C 2.796875 -0.34375 2.6875 -0.21875 2.421875 -0.1875 L 2.421875 0 L 4.28125 0 L 4.28125 -0.1875 C 3.984375 -0.21875 3.890625 -0.3125 3.890625 -0.640625 L 3.890625 -2.640625 C 3.890625 -3.328125 3.46875 -3.765625 2.828125 -3.765625 C 2.34375 -3.765625 1.984375 -3.546875 1.6875 -3.0625 Z M 1.6875 -3.671875 "/>
</symbol>
<symbol overflow="visible" id="glyph0-8">
<path style="stroke:none;" d="M 3.765625 -0.515625 L 3.6875 -0.421875 C 3.65625 -0.40625 3.640625 -0.390625 3.59375 -0.390625 C 3.484375 -0.390625 3.421875 -0.46875 3.421875 -0.59375 L 3.421875 -2.671875 C 3.421875 -3.34375 2.828125 -3.765625 1.859375 -3.765625 C 0.953125 -3.765625 0.34375 -3.359375 0.34375 -2.765625 C 0.34375 -2.4375 0.546875 -2.234375 0.859375 -2.234375 C 1.1875 -2.234375 1.40625 -2.421875 1.40625 -2.703125 C 1.40625 -2.8125 1.359375 -2.90625 1.265625 -3.03125 C 1.1875 -3.125 1.171875 -3.171875 1.171875 -3.21875 C 1.171875 -3.375 1.390625 -3.5 1.671875 -3.5 C 2.125 -3.5 2.34375 -3.296875 2.34375 -2.8125 L 2.34375 -2.234375 C 1.390625 -1.9375 1 -1.78125 0.703125 -1.578125 C 0.359375 -1.34375 0.203125 -1.078125 0.203125 -0.734375 C 0.203125 -0.25 0.578125 0.109375 1.078125 0.109375 C 1.53125 0.109375 1.90625 -0.046875 2.34375 -0.453125 C 2.421875 -0.046875 2.59375 0.109375 2.984375 0.109375 C 3.328125 0.109375 3.578125 -0.015625 3.875 -0.34375 Z M 2.328125 -0.796875 C 2.109375 -0.546875 1.953125 -0.453125 1.765625 -0.453125 C 1.53125 -0.453125 1.359375 -0.671875 1.359375 -0.984375 C 1.359375 -1.453125 1.6875 -1.78125 2.328125 -1.953125 Z M 2.328125 -0.796875 "/>
</symbol>
<symbol overflow="visible" id="glyph0-9">
<path style="stroke:none;" d="M 2.703125 -2.59375 L 2.703125 -3.75 L 2.53125 -3.75 C 2.484375 -3.625 2.4375 -3.59375 2.34375 -3.59375 C 2.296875 -3.59375 2.21875 -3.609375 2.078125 -3.640625 C 1.828125 -3.734375 1.640625 -3.765625 1.46875 -3.765625 C 0.734375 -3.765625 0.21875 -3.265625 0.21875 -2.59375 C 0.21875 -2.078125 0.546875 -1.703125 1.34375 -1.375 C 1.890625 -1.125 2.109375 -0.9375 2.109375 -0.671875 C 2.109375 -0.359375 1.875 -0.15625 1.515625 -0.15625 C 0.953125 -0.15625 0.59375 -0.515625 0.421875 -1.203125 L 0.203125 -1.203125 L 0.203125 0.109375 L 0.390625 0.109375 C 0.484375 -0.0625 0.53125 -0.125 0.609375 -0.125 C 0.640625 -0.125 0.703125 -0.109375 0.78125 -0.078125 C 1 0.03125 1.421875 0.109375 1.640625 0.109375 C 2.375 0.109375 2.875 -0.375 2.875 -1.09375 C 2.875 -1.65625 2.5625 -2 1.78125 -2.34375 C 1.234375 -2.5625 1.015625 -2.765625 1.015625 -3.03125 C 1.015625 -3.296875 1.234375 -3.5 1.53125 -3.5 C 1.734375 -3.5 1.953125 -3.40625 2.125 -3.25 C 2.296875 -3.078125 2.390625 -2.9375 2.5 -2.59375 Z M 2.703125 -2.59375 "/>
</symbol>
<symbol overflow="visible" id="glyph0-10">
<path style="stroke:none;" d="M 3.8125 -3.671875 L 2.609375 -3.671875 L 2.609375 -3.46875 C 2.953125 -3.453125 3.046875 -3.40625 3.046875 -3.21875 C 3.046875 -3.125 3.03125 -3.046875 2.96875 -2.859375 L 2.421875 -1.328125 L 1.859375 -2.796875 C 1.6875 -3.203125 1.6875 -3.203125 1.6875 -3.265625 C 1.6875 -3.375 1.796875 -3.453125 1.984375 -3.46875 L 2.109375 -3.46875 L 2.109375 -3.671875 L 0.125 -3.671875 L 0.125 -3.46875 C 0.3125 -3.453125 0.359375 -3.421875 0.40625 -3.359375 C 0.421875 -3.359375 0.78125 -2.578125 0.921875 -2.25 L 1.875 0.109375 L 1.734375 0.53125 C 1.59375 0.921875 1.390625 1.171875 1.203125 1.171875 C 1.140625 1.171875 1.078125 1.109375 1.078125 1.046875 C 1.078125 1.03125 1.078125 1.015625 1.078125 1 C 1.09375 0.953125 1.09375 0.921875 1.09375 0.875 C 1.09375 0.65625 0.90625 0.5 0.640625 0.5 C 0.34375 0.5 0.125 0.703125 0.125 1 C 0.125 1.375 0.453125 1.625 0.90625 1.625 C 1.171875 1.625 1.40625 1.53125 1.5625 1.375 C 1.734375 1.1875 1.890625 0.859375 2.171875 0.125 L 3.359375 -3.03125 C 3.484375 -3.375 3.578125 -3.453125 3.8125 -3.46875 Z M 3.8125 -3.671875 "/>
</symbol>
<symbol overflow="visible" id="glyph0-11">
<path style="stroke:none;" d="M 5.8125 0.9375 C 5.546875 1 5.421875 1.03125 5.265625 1.03125 C 4.90625 1.03125 4.546875 0.875 4.265625 0.609375 C 4.125 0.46875 4.046875 0.34375 3.890625 0.046875 C 4.546875 -0.15625 4.8125 -0.3125 5.15625 -0.6875 C 5.640625 -1.203125 5.90625 -1.890625 5.90625 -2.65625 C 5.90625 -4.3125 4.734375 -5.5 3.09375 -5.5 C 1.46875 -5.5 0.28125 -4.28125 0.28125 -2.625 C 0.28125 -1.90625 0.53125 -1.234375 0.984375 -0.734375 C 1.3125 -0.359375 1.5625 -0.203125 2.171875 0.015625 C 2.34375 0.359375 2.4375 0.515625 2.609375 0.703125 C 3.0625 1.140625 3.734375 1.40625 4.4375 1.40625 C 4.921875 1.40625 5.25 1.34375 5.859375 1.125 Z M 3.109375 -5.234375 C 4 -5.234375 4.5 -4.28125 4.5 -2.625 C 4.5 -0.984375 4.015625 -0.109375 3.09375 -0.109375 C 2.171875 -0.109375 1.6875 -0.984375 1.6875 -2.625 C 1.6875 -4.296875 2.1875 -5.234375 3.109375 -5.234375 Z M 3.109375 -5.234375 "/>
</symbol>
<symbol overflow="visible" id="glyph0-12">
<path style="stroke:none;" d="M 2.734375 0.109375 C 3.0625 -0.015625 3.265625 -0.046875 3.78125 -0.109375 L 4.265625 -0.15625 L 4.265625 -0.34375 C 3.921875 -0.359375 3.828125 -0.46875 3.828125 -0.796875 L 3.828125 -3.671875 L 2.234375 -3.671875 L 2.234375 -3.46875 C 2.625 -3.4375 2.71875 -3.34375 2.71875 -3 L 2.71875 -0.75 C 2.453125 -0.5 2.296875 -0.40625 2.0625 -0.40625 C 1.734375 -0.40625 1.625 -0.5625 1.625 -0.96875 L 1.625 -3.671875 L 0.125 -3.671875 L 0.125 -3.46875 C 0.453125 -3.40625 0.515625 -3.34375 0.515625 -3 L 0.515625 -1 C 0.515625 -0.296875 0.921875 0.109375 1.578125 0.109375 C 1.984375 0.109375 2.265625 -0.015625 2.734375 -0.40625 Z M 2.734375 0.109375 "/>
</symbol>
<symbol overflow="visible" id="glyph0-13">
<path style="stroke:none;" d="M 2.421875 -3.671875 L 1.671875 -3.671875 L 1.671875 -5.015625 L 1.484375 -5.015625 C 1 -4.328125 0.671875 -3.96875 0.15625 -3.53125 L 0.15625 -3.3125 L 0.578125 -3.3125 L 0.578125 -0.734375 C 0.578125 -0.21875 0.921875 0.09375 1.46875 0.09375 C 2 0.09375 2.3125 -0.140625 2.640625 -0.796875 L 2.4375 -0.875 C 2.28125 -0.578125 2.15625 -0.46875 1.984375 -0.46875 C 1.765625 -0.46875 1.671875 -0.609375 1.671875 -0.921875 L 1.671875 -3.3125 L 2.421875 -3.3125 Z M 2.421875 -3.671875 "/>
</symbol>
<symbol overflow="visible" id="glyph0-14">
<path style="stroke:none;" d="M 2.28125 -2.28125 L 0.34375 -2.28125 L 0.34375 -1.359375 L 2.28125 -1.359375 Z M 2.28125 -2.28125 "/>
</symbol>
<symbol overflow="visible" id="glyph0-15">
<path style="stroke:none;" d="M 3.34375 -1.265625 L 3.125 -1.265625 C 3.046875 -1.015625 2.984375 -0.875 2.859375 -0.703125 C 2.59375 -0.359375 2.34375 -0.25 1.703125 -0.25 L 1.46875 -0.25 L 3.3125 -3.453125 L 3.3125 -3.671875 L 0.359375 -3.671875 L 0.296875 -2.53125 L 0.515625 -2.53125 C 0.703125 -3.296875 0.921875 -3.421875 2.03125 -3.40625 L 0.171875 -0.203125 L 0.171875 0 L 3.21875 0 Z M 3.34375 -1.265625 "/>
</symbol>
<symbol overflow="visible" id="glyph0-16">
<path style="stroke:none;" d="M 2 -3.765625 C 0.984375 -3.765625 0.203125 -2.921875 0.203125 -1.84375 C 0.203125 -0.703125 0.953125 0.109375 2 0.109375 C 3.015625 0.109375 3.78125 -0.71875 3.78125 -1.828125 C 3.78125 -2.9375 3.015625 -3.765625 2 -3.765625 Z M 2 -3.515625 C 2.46875 -3.515625 2.609375 -3.078125 2.609375 -1.78125 C 2.609375 -0.546875 2.453125 -0.140625 2 -0.140625 C 1.53125 -0.140625 1.375 -0.546875 1.375 -1.703125 C 1.375 -3.109375 1.515625 -3.515625 2 -3.515625 Z M 2 -3.515625 "/>
</symbol>
<symbol overflow="visible" id="glyph0-17">
<path style="stroke:none;" d="M 2.015625 -0.9375 C 2.015625 -0.34375 1.921875 -0.25 1.234375 -0.203125 L 1.234375 0 L 4.078125 0 L 4.078125 -0.203125 C 3.390625 -0.25 3.296875 -0.328125 3.296875 -0.9375 L 3.296875 -5.125 C 4.28125 -5.09375 4.6875 -4.71875 4.828125 -3.78125 L 5.0625 -3.78125 L 5.046875 -5.375 L 0.265625 -5.375 L 0.25 -3.78125 L 0.484375 -3.78125 C 0.609375 -4.71875 1.03125 -5.09375 2.015625 -5.125 Z M 2.015625 -0.9375 "/>
</symbol>
<symbol overflow="visible" id="glyph0-18">
<path style="stroke:none;" d="M 3.28125 -0.859375 C 2.984375 -0.53125 2.78125 -0.421875 2.453125 -0.421875 C 1.75 -0.421875 1.3125 -1.109375 1.3125 -2.1875 C 1.3125 -3.015625 1.578125 -3.515625 1.984375 -3.515625 C 2.109375 -3.515625 2.234375 -3.453125 2.28125 -3.359375 C 2.328125 -3.296875 2.328125 -3.296875 2.328125 -2.953125 C 2.328125 -2.5625 2.46875 -2.390625 2.765625 -2.390625 C 3.109375 -2.390625 3.3125 -2.578125 3.3125 -2.890625 C 3.3125 -3.375 2.78125 -3.765625 2.078125 -3.765625 C 1 -3.765625 0.203125 -2.921875 0.203125 -1.78125 C 0.203125 -0.671875 0.921875 0.109375 1.90625 0.109375 C 2.515625 0.109375 2.953125 -0.140625 3.421875 -0.71875 Z M 3.28125 -0.859375 "/>
</symbol>
<symbol overflow="visible" id="glyph0-19">
<path style="stroke:none;" d="M 1.65625 -5.375 L 0.125 -5.375 L 0.125 -5.1875 C 0.5 -5.109375 0.546875 -5.046875 0.546875 -4.71875 L 0.546875 -0.671875 C 0.546875 -0.328125 0.484375 -0.265625 0.125 -0.1875 L 0.125 0 L 2.046875 0 L 2.046875 -0.1875 C 1.75 -0.234375 1.65625 -0.34375 1.65625 -0.640625 L 1.65625 -2.765625 C 1.65625 -2.796875 1.703125 -2.875 1.796875 -2.953125 C 1.96875 -3.140625 2.15625 -3.234375 2.34375 -3.234375 C 2.609375 -3.234375 2.75 -3.015625 2.75 -2.5625 L 2.75 -0.640625 C 2.75 -0.34375 2.640625 -0.21875 2.375 -0.1875 L 2.375 0 L 4.25 0 L 4.25 -0.1875 C 3.953125 -0.21875 3.859375 -0.328125 3.859375 -0.671875 L 3.859375 -2.640625 C 3.859375 -3.328125 3.4375 -3.765625 2.78125 -3.765625 C 2.359375 -3.765625 2.0625 -3.609375 1.65625 -3.140625 Z M 1.65625 -5.375 "/>
</symbol>
<symbol overflow="visible" id="glyph0-20">
<path style="stroke:none;" d="M 2.71875 0.765625 C 2.71875 1.265625 2.65625 1.34375 2.140625 1.4375 L 2.140625 1.625 L 4.265625 1.625 L 4.265625 1.4375 C 3.890625 1.375 3.828125 1.296875 3.828125 0.984375 L 3.828125 -3.75 L 3.703125 -3.75 L 3.078125 -3.3125 C 2.6875 -3.65625 2.4375 -3.765625 2.03125 -3.765625 C 1 -3.765625 0.265625 -2.921875 0.265625 -1.734375 C 0.265625 -0.65625 0.875 0.109375 1.734375 0.109375 C 2.109375 0.109375 2.390625 -0.015625 2.71875 -0.328125 Z M 2.71875 -0.78125 C 2.640625 -0.484375 2.4375 -0.3125 2.171875 -0.3125 C 1.671875 -0.3125 1.4375 -0.828125 1.4375 -1.875 C 1.4375 -2.953125 1.6875 -3.5 2.1875 -3.5 C 2.5 -3.5 2.71875 -3.25 2.71875 -2.875 Z M 2.71875 -0.78125 "/>
</symbol>
<symbol overflow="visible" id="glyph0-21">
<path style="stroke:none;" d="M 5.484375 -0.203125 L 5.453125 -0.203125 C 5.140625 -0.203125 5.015625 -0.359375 4.609375 -1.296875 L 2.84375 -5.484375 L 2.609375 -5.484375 L 0.84375 -1.125 C 0.546875 -0.390625 0.453125 -0.265625 0.078125 -0.203125 L 0.078125 0 L 1.6875 0 L 1.6875 -0.203125 C 1.21875 -0.234375 1.03125 -0.3125 1.03125 -0.53125 C 1.03125 -0.625 1.09375 -0.828125 1.265625 -1.25 L 1.390625 -1.5625 L 3.171875 -1.5625 C 3.4375 -0.953125 3.546875 -0.65625 3.546875 -0.484375 C 3.546875 -0.3125 3.4375 -0.234375 3.15625 -0.21875 C 3.125 -0.21875 3.015625 -0.21875 2.90625 -0.203125 L 2.90625 0 L 5.484375 0 Z M 1.5 -1.875 L 2.25 -3.8125 L 3.046875 -1.875 Z M 1.5 -1.875 "/>
</symbol>
<symbol overflow="visible" id="glyph0-22">
<path style="stroke:none;" d="M 2.703125 0.109375 C 3.0625 0 3.265625 -0.046875 3.75 -0.09375 L 4.25 -0.15625 L 4.25 -0.34375 C 3.875 -0.359375 3.78125 -0.46875 3.78125 -0.796875 L 3.78125 -5.375 L 2.0625 -5.375 L 2.0625 -5.1875 C 2.59375 -5.140625 2.671875 -5.09375 2.671875 -4.71875 L 2.671875 -3.265625 C 2.328125 -3.640625 2.09375 -3.765625 1.71875 -3.765625 C 0.84375 -3.765625 0.203125 -2.90625 0.203125 -1.75 C 0.203125 -0.671875 0.796875 0.109375 1.640625 0.109375 C 2.0625 0.109375 2.328125 -0.015625 2.703125 -0.40625 Z M 2.671875 -0.890625 C 2.671875 -0.84375 2.59375 -0.703125 2.5 -0.609375 C 2.34375 -0.421875 2.171875 -0.328125 2 -0.328125 C 1.578125 -0.328125 1.375 -0.8125 1.375 -1.828125 C 1.375 -2.84375 1.59375 -3.3125 2.046875 -3.3125 C 2.3125 -3.3125 2.5625 -3.125 2.671875 -2.828125 Z M 2.671875 -0.890625 "/>
</symbol>
<symbol overflow="visible" id="glyph0-23">
<path style="stroke:none;" d="M 3.859375 -3.671875 L 2.65625 -3.671875 L 2.65625 -3.46875 C 3 -3.453125 3.09375 -3.40625 3.09375 -3.21875 C 3.09375 -3.125 3.0625 -3 3 -2.859375 L 2.4375 -1.40625 L 1.8125 -3.015625 C 1.75 -3.171875 1.734375 -3.21875 1.734375 -3.265625 C 1.734375 -3.390625 1.8125 -3.4375 2.015625 -3.453125 C 2.03125 -3.453125 2.09375 -3.46875 2.15625 -3.46875 L 2.15625 -3.671875 L 0.171875 -3.671875 L 0.171875 -3.46875 C 0.34375 -3.453125 0.390625 -3.421875 0.453125 -3.359375 C 0.46875 -3.359375 0.828125 -2.5625 0.96875 -2.25 L 1.921875 0.109375 L 2.125 0.109375 L 3.390625 -3.03125 C 3.546875 -3.390625 3.609375 -3.453125 3.859375 -3.46875 Z M 3.859375 -3.671875 "/>
</symbol>
<symbol overflow="visible" id="glyph0-24">
<path style="stroke:none;" d="M 1.828125 -5.375 L 0.15625 -5.375 L 0.15625 -5.171875 C 0.3125 -5.171875 0.453125 -5.0625 0.828125 -4.609375 L 0.828125 -0.828125 C 0.828125 -0.375 0.703125 -0.265625 0.125 -0.203125 L 0.125 0 L 1.9375 0 L 1.9375 -0.203125 C 1.3125 -0.265625 1.171875 -0.421875 1.171875 -0.984375 L 1.171875 -4.1875 L 4.734375 0.140625 L 4.953125 0.140625 L 4.953125 -4.546875 C 4.953125 -5 5.0625 -5.09375 5.578125 -5.171875 L 5.578125 -5.375 L 3.859375 -5.375 L 3.859375 -5.171875 C 4.453125 -5.125 4.609375 -4.953125 4.609375 -4.390625 L 4.609375 -1.96875 Z M 1.828125 -5.375 "/>
</symbol>
<symbol overflow="visible" id="glyph0-25">
<path style="stroke:none;" d="M 5.6875 -0.203125 C 5.546875 -0.203125 5.4375 -0.25 5.359375 -0.34375 L 3.765625 -2.609375 C 4.234375 -2.765625 4.4375 -2.875 4.65625 -3.0625 C 4.890625 -3.28125 5.015625 -3.609375 5.015625 -3.953125 C 5.015625 -4.875 4.21875 -5.375 2.765625 -5.375 L 0.203125 -5.375 L 0.203125 -5.171875 C 0.796875 -5.140625 0.90625 -5.015625 0.90625 -4.453125 L 0.90625 -0.9375 C 0.90625 -0.34375 0.828125 -0.265625 0.203125 -0.203125 L 0.203125 0 L 2.890625 0 L 2.890625 -0.203125 C 2.28125 -0.28125 2.1875 -0.359375 2.1875 -0.9375 L 2.1875 -2.484375 L 2.40625 -2.484375 L 4.0625 0 L 5.6875 0 Z M 2.1875 -4.765625 C 2.1875 -4.8125 2.234375 -4.9375 2.25 -4.984375 C 2.296875 -5.0625 2.421875 -5.109375 2.625 -5.109375 C 3.359375 -5.109375 3.65625 -4.765625 3.65625 -3.921875 C 3.65625 -3.421875 3.53125 -3.109375 3.28125 -2.9375 C 3.0625 -2.8125 2.796875 -2.75 2.1875 -2.75 Z M 2.1875 -4.765625 "/>
</symbol>
<symbol overflow="visible" id="glyph0-26">
<path style="stroke:none;" d="M 1.6875 -3.671875 L 0.171875 -3.671875 L 0.171875 -3.46875 C 0.515625 -3.421875 0.59375 -3.34375 0.59375 -3 L 0.59375 0.984375 C 0.59375 1.296875 0.53125 1.375 0.15625 1.4375 L 0.15625 1.625 L 2.328125 1.625 L 2.328125 1.46875 C 1.84375 1.4375 1.703125 1.28125 1.703125 0.75 L 1.703125 -0.375 C 2.078125 0 2.296875 0.109375 2.640625 0.109375 C 3.53125 0.109375 4.171875 -0.71875 4.171875 -1.90625 C 4.171875 -3 3.578125 -3.765625 2.6875 -3.765625 C 2.21875 -3.765625 1.9375 -3.578125 1.6875 -3.125 Z M 1.703125 -2.75 C 1.703125 -2.8125 1.78125 -2.9375 1.875 -3.03125 C 2.03125 -3.21875 2.21875 -3.3125 2.390625 -3.3125 C 2.796875 -3.3125 2.984375 -2.828125 2.984375 -1.796875 C 2.984375 -0.796875 2.765625 -0.328125 2.3125 -0.328125 C 2.046875 -0.328125 1.828125 -0.515625 1.703125 -0.8125 Z M 1.703125 -2.75 "/>
</symbol>
<symbol overflow="visible" id="glyph0-27">
<path style="stroke:none;" d="M 4.046875 -2.59375 L 4.046875 -0.765625 C 4.046875 -0.375 3.90625 -0.265625 3.328125 -0.203125 L 3.328125 0 L 6.03125 0 L 6.03125 -0.203125 C 5.46875 -0.265625 5.34375 -0.375 5.34375 -0.765625 L 5.34375 -4.609375 C 5.34375 -5.015625 5.5 -5.140625 6.03125 -5.171875 L 6.03125 -5.375 L 3.328125 -5.375 L 3.328125 -5.171875 C 3.890625 -5.140625 4.046875 -5.015625 4.046875 -4.609375 L 4.046875 -2.96875 L 2.125 -2.96875 L 2.125 -4.609375 C 2.125 -5.015625 2.296875 -5.140625 2.84375 -5.171875 L 2.84375 -5.375 L 0.171875 -5.375 L 0.171875 -5.171875 C 0.703125 -5.125 0.84375 -5.015625 0.84375 -4.609375 L 0.84375 -0.765625 C 0.84375 -0.375 0.71875 -0.265625 0.171875 -0.203125 L 0.171875 0 L 2.84375 0 L 2.84375 -0.203125 C 2.265625 -0.265625 2.125 -0.375 2.125 -0.765625 L 2.125 -2.59375 Z M 4.046875 -2.59375 "/>
</symbol>
<symbol overflow="visible" id="glyph0-28">
<path style="stroke:none;" d="M 5.625 -3.671875 L 4.546875 -3.671875 L 4.546875 -3.46875 C 4.84375 -3.4375 4.9375 -3.375 4.9375 -3.203125 C 4.9375 -3.109375 4.828125 -2.8125 4.578125 -2.171875 C 4.46875 -1.875 4.390625 -1.703125 4.296875 -1.4375 C 4.21875 -1.75 4.203125 -1.859375 4.03125 -2.4375 C 3.875 -2.984375 3.8125 -3.21875 3.8125 -3.28125 C 3.8125 -3.40625 3.890625 -3.453125 4.203125 -3.46875 L 4.203125 -3.671875 L 2.34375 -3.671875 L 2.34375 -3.46875 C 2.640625 -3.4375 2.65625 -3.4375 2.8125 -2.90625 L 2.859375 -2.765625 L 2.3125 -1.40625 L 2.125 -1.90625 C 2.046875 -2.078125 2 -2.234375 1.953125 -2.34375 C 1.734375 -2.890625 1.640625 -3.15625 1.640625 -3.25 C 1.640625 -3.375 1.71875 -3.4375 1.953125 -3.46875 L 1.953125 -3.671875 L 0.1875 -3.671875 L 0.1875 -3.46875 C 0.390625 -3.4375 0.421875 -3.390625 0.640625 -2.859375 L 1.8125 0.109375 L 2 0.109375 L 3 -2.359375 L 3.8125 0.109375 L 4 0.109375 L 5.21875 -3.078125 C 5.359375 -3.375 5.421875 -3.4375 5.625 -3.46875 Z M 5.625 -3.671875 "/>
</symbol>
<symbol overflow="visible" id="glyph0-29">
<path style="stroke:none;" d="M 5.078125 -1.8125 L 4.84375 -1.8125 C 4.578125 -1.1875 4.421875 -0.9375 4.140625 -0.6875 C 3.8125 -0.390625 3.375 -0.25 2.765625 -0.25 C 2.28125 -0.25 2.125 -0.34375 2.125 -0.6875 L 2.125 -4.453125 C 2.125 -5.046875 2.234375 -5.140625 2.921875 -5.171875 L 2.921875 -5.375 L 0.15625 -5.375 L 0.15625 -5.171875 C 0.6875 -5.140625 0.828125 -5.015625 0.828125 -4.609375 L 0.828125 -0.765625 C 0.828125 -0.359375 0.734375 -0.265625 0.15625 -0.203125 L 0.15625 0 L 4.75 0 Z M 5.078125 -1.8125 "/>
</symbol>
<symbol overflow="visible" id="glyph0-30">
<path style="stroke:none;" d="M 4.59375 -3.328125 L 4.59375 -3.140625 C 5.0625 -3.078125 5.109375 -3.046875 5.109375 -2.8125 C 5.109375 -2.5 4.96875 -2.234375 4.515625 -1.65625 L 3.3125 -3.359375 C 4.15625 -3.671875 4.515625 -4.03125 4.515625 -4.53125 C 4.515625 -5.109375 4 -5.5 3.1875 -5.5 C 2.234375 -5.5 1.640625 -5.015625 1.640625 -4.234375 C 1.640625 -3.890625 1.734375 -3.640625 2.046875 -3.078125 C 0.921875 -2.53125 0.5 -2.03125 0.5 -1.28125 C 0.5 -0.46875 1.125 0.125 2.015625 0.125 C 2.59375 0.125 3.125 -0.09375 3.78125 -0.578125 C 4.25 -0.046875 4.546875 0.125 4.96875 0.125 C 5.203125 0.125 5.515625 0.03125 5.703125 -0.125 C 5.828125 -0.21875 5.9375 -0.34375 6.125 -0.671875 L 6.265625 -0.875 L 6.09375 -0.984375 C 5.96875 -0.765625 5.828125 -0.671875 5.640625 -0.671875 C 5.34375 -0.671875 5.140625 -0.828125 4.6875 -1.40625 C 5.125 -2 5.21875 -2.125 5.4375 -2.46875 L 5.640625 -2.828125 C 5.796875 -3.046875 5.890625 -3.109375 6.234375 -3.140625 L 6.234375 -3.328125 Z M 2.5625 -2.28125 C 3.171875 -1.390625 3.34375 -1.125 3.59375 -0.796875 C 3.28125 -0.578125 3.078125 -0.484375 2.875 -0.484375 C 2.640625 -0.484375 2.375 -0.609375 2.171875 -0.8125 C 1.828125 -1.171875 1.59375 -1.6875 1.59375 -2.09375 C 1.59375 -2.390625 1.75 -2.59375 2.1875 -2.84375 Z M 3.15625 -3.59375 C 2.734375 -4.125 2.5625 -4.46875 2.5625 -4.78125 C 2.5625 -5.0625 2.734375 -5.234375 2.984375 -5.234375 C 3.375 -5.234375 3.71875 -4.765625 3.71875 -4.234375 C 3.71875 -3.90625 3.5625 -3.734375 3.15625 -3.59375 Z M 3.15625 -3.59375 "/>
</symbol>
<symbol overflow="visible" id="glyph0-31">
<path style="stroke:none;" d="M 3.84375 -3.78125 L 3.84375 -5.5 L 3.609375 -5.5 C 3.5625 -5.296875 3.484375 -5.234375 3.359375 -5.234375 C 3.28125 -5.234375 3.203125 -5.25 3.015625 -5.328125 C 2.640625 -5.453125 2.390625 -5.5 2.09375 -5.5 C 1.015625 -5.5 0.34375 -4.890625 0.34375 -3.875 C 0.34375 -3.1875 0.765625 -2.6875 1.703125 -2.234375 L 2.25 -1.96875 C 2.9375 -1.640625 3.140625 -1.4375 3.140625 -1.015625 C 3.140625 -0.46875 2.75 -0.109375 2.125 -0.109375 C 1.671875 -0.109375 1.265625 -0.3125 0.96875 -0.703125 C 0.75 -1 0.640625 -1.25 0.515625 -1.8125 L 0.28125 -1.8125 L 0.28125 0.15625 L 0.515625 0.15625 C 0.5625 -0.046875 0.625 -0.125 0.75 -0.125 C 0.8125 -0.125 0.90625 -0.09375 1.078125 -0.046875 C 1.46875 0.09375 1.765625 0.15625 2.109375 0.15625 C 3.28125 0.15625 4.078125 -0.53125 4.078125 -1.53125 C 4.078125 -2.125 3.71875 -2.71875 3.203125 -2.96875 L 2.03125 -3.5625 C 1.390625 -3.875 1.21875 -4.078125 1.21875 -4.453125 C 1.21875 -4.953125 1.546875 -5.25 2.09375 -5.25 C 2.453125 -5.25 2.78125 -5.09375 3.0625 -4.796875 C 3.34375 -4.53125 3.46875 -4.296875 3.625 -3.78125 Z M 3.84375 -3.78125 "/>
</symbol>
<symbol overflow="visible" id="glyph0-32">
<path style="stroke:none;" d="M 0.5625 -3.3125 L 0.5625 -0.671875 C 0.5625 -0.328125 0.484375 -0.234375 0.109375 -0.1875 L 0.109375 0 L 2.328125 0 L 2.328125 -0.1875 C 1.765625 -0.203125 1.671875 -0.296875 1.671875 -0.8125 L 1.671875 -3.3125 L 2.359375 -3.3125 L 2.359375 -3.671875 L 1.671875 -3.671875 L 1.671875 -4.640625 C 1.671875 -5.078125 1.796875 -5.25 2.0625 -5.25 C 2.21875 -5.25 2.296875 -5.1875 2.296875 -5.09375 C 2.296875 -5.0625 2.28125 -5.015625 2.234375 -4.9375 C 2.15625 -4.8125 2.125 -4.71875 2.125 -4.640625 C 2.125 -4.390625 2.328125 -4.203125 2.59375 -4.203125 C 2.890625 -4.203125 3.09375 -4.40625 3.09375 -4.703125 C 3.09375 -5.171875 2.625 -5.5 1.953125 -5.5 C 1.421875 -5.5 1.015625 -5.3125 0.796875 -4.953125 C 0.625 -4.671875 0.5625 -4.34375 0.5625 -3.671875 L 0.109375 -3.671875 L 0.109375 -3.3125 Z M 0.5625 -3.3125 "/>
</symbol>
<symbol overflow="visible" id="glyph0-33">
<path style="stroke:none;" d="M 4.640625 -5.375 L 0.125 -5.375 L 0.125 -5.171875 C 0.671875 -5.140625 0.828125 -5.03125 0.828125 -4.609375 L 0.828125 -0.765625 C 0.828125 -0.34375 0.71875 -0.265625 0.125 -0.203125 L 0.125 0 L 2.984375 0 L 2.984375 -0.203125 C 2.265625 -0.234375 2.109375 -0.328125 2.109375 -0.765625 L 2.109375 -2.609375 C 2.921875 -2.59375 3.21875 -2.3125 3.328125 -1.390625 L 3.53125 -1.390625 L 3.53125 -4.078125 L 3.328125 -4.078125 C 3.1875 -3.171875 2.90625 -2.890625 2.109375 -2.890625 L 2.109375 -4.734375 C 2.109375 -5.03125 2.21875 -5.109375 2.625 -5.109375 C 3.359375 -5.109375 3.828125 -4.96875 4.078125 -4.6875 C 4.25 -4.5 4.328125 -4.28125 4.453125 -3.78125 L 4.640625 -3.78125 Z M 4.640625 -5.375 "/>
</symbol>
<symbol overflow="visible" id="glyph0-34">
<path style="stroke:none;" d="M 4.078125 -3.671875 L 2.375 -3.671875 L 2.375 -3.484375 C 2.46875 -3.46875 2.546875 -3.453125 2.5625 -3.453125 C 2.765625 -3.421875 2.84375 -3.375 2.84375 -3.265625 C 2.84375 -3.203125 2.765625 -3.046875 2.6875 -2.96875 L 1.65625 -1.953125 L 1.65625 -5.375 L 0.171875 -5.375 L 0.171875 -5.1875 C 0.453125 -5.15625 0.5625 -5.03125 0.5625 -4.71875 L 0.5625 -0.671875 C 0.5625 -0.359375 0.4375 -0.21875 0.171875 -0.1875 L 0.171875 0 L 2.078125 0 L 2.078125 -0.1875 C 1.703125 -0.25 1.65625 -0.296875 1.65625 -0.671875 L 1.65625 -1.578125 L 1.84375 -1.765625 L 2.59375 -0.703125 C 2.734375 -0.5 2.796875 -0.40625 2.796875 -0.34375 C 2.796875 -0.25 2.6875 -0.203125 2.453125 -0.1875 L 2.453125 0 L 4.3125 0 L 4.3125 -0.1875 C 4.234375 -0.1875 4.1875 -0.21875 4.125 -0.3125 L 2.578125 -2.4375 C 3.375 -3.28125 3.578125 -3.421875 4.078125 -3.484375 Z M 4.078125 -3.671875 "/>
</symbol>
<symbol overflow="visible" id="glyph0-35">
<path style="stroke:none;" d="M 5.21875 -1.203125 C 4.75 -0.71875 4.5 -0.53125 4.109375 -0.375 C 3.875 -0.28125 3.625 -0.234375 3.390625 -0.234375 C 2.875 -0.234375 2.375 -0.515625 2.140625 -0.921875 C 1.90625 -1.34375 1.796875 -1.921875 1.796875 -2.71875 C 1.796875 -4.359375 2.3125 -5.234375 3.265625 -5.234375 C 3.640625 -5.234375 3.984375 -5.09375 4.3125 -4.78125 C 4.65625 -4.484375 4.84375 -4.21875 5.125 -3.609375 L 5.328125 -3.609375 L 5.328125 -5.46875 L 5.109375 -5.46875 C 5 -5.1875 4.90625 -5.109375 4.75 -5.109375 C 4.6875 -5.109375 4.5625 -5.140625 4.390625 -5.21875 C 3.921875 -5.40625 3.546875 -5.5 3.15625 -5.5 C 1.578125 -5.5 0.390625 -4.265625 0.390625 -2.640625 C 0.390625 -1.015625 1.5625 0.15625 3.203125 0.15625 C 3.765625 0.15625 4.234375 0.015625 4.671875 -0.28125 C 4.9375 -0.453125 5.109375 -0.609375 5.46875 -1.015625 Z M 5.21875 -1.203125 "/>
</symbol>
<symbol overflow="visible" id="glyph0-36">
<path style="stroke:none;" d="M 3.828125 -3.171875 L 3.828125 -3.59375 L 2.796875 -3.59375 C 2.453125 -3.71875 2.234375 -3.765625 1.90625 -3.765625 C 0.96875 -3.765625 0.296875 -3.234375 0.296875 -2.484375 C 0.296875 -2.21875 0.390625 -1.953125 0.578125 -1.71875 C 0.75 -1.53125 0.90625 -1.4375 1.28125 -1.265625 C 0.65625 -1.0625 0.328125 -0.75 0.328125 -0.34375 C 0.328125 -0.015625 0.484375 0.125 0.984375 0.3125 C 0.484375 0.375 0.21875 0.578125 0.21875 0.90625 C 0.21875 1.375 0.8125 1.640625 1.828125 1.640625 C 3.140625 1.640625 3.84375 1.21875 3.84375 0.4375 C 3.84375 -0.171875 3.34375 -0.546875 2.53125 -0.546875 L 2.015625 -0.546875 C 1.390625 -0.546875 1.21875 -0.59375 1.21875 -0.8125 C 1.21875 -1.0625 1.453125 -1.234375 1.765625 -1.234375 L 2.125 -1.21875 C 2.5 -1.21875 2.703125 -1.265625 2.96875 -1.4375 C 3.328125 -1.640625 3.5 -1.96875 3.5 -2.390625 C 3.5 -2.703125 3.40625 -2.9375 3.1875 -3.171875 Z M 2.578125 0.40625 C 3 0.40625 3.21875 0.546875 3.21875 0.8125 C 3.21875 1.171875 2.78125 1.390625 1.984375 1.390625 C 1.28125 1.390625 0.921875 1.203125 0.921875 0.84375 C 0.921875 0.6875 0.984375 0.59375 1.203125 0.40625 Z M 1.90625 -3.515625 C 2.28125 -3.515625 2.4375 -3.21875 2.4375 -2.46875 C 2.4375 -1.734375 2.28125 -1.453125 1.90625 -1.453125 C 1.53125 -1.453125 1.390625 -1.734375 1.390625 -2.46875 C 1.390625 -3.21875 1.53125 -3.515625 1.90625 -3.515625 Z M 1.90625 -3.515625 "/>
</symbol>
<symbol overflow="visible" id="glyph0-37">
<path style="stroke:none;" d="M 0.765625 -0.71875 C 0.765625 -0.375 0.578125 -0.21875 0.109375 -0.203125 L 0.109375 0 L 2.625 0 C 4.34375 0 5.484375 -1.09375 5.484375 -2.75 C 5.484375 -4.375 4.375 -5.375 2.53125 -5.375 L 0.109375 -5.375 L 0.109375 -5.171875 C 0.625 -5.125 0.765625 -5.015625 0.765625 -4.640625 Z M 2.0625 -4.828125 C 2.0625 -5.015625 2.21875 -5.109375 2.53125 -5.109375 C 3.109375 -5.109375 3.5 -4.84375 3.78125 -4.296875 C 4 -3.875 4.109375 -3.296875 4.109375 -2.625 C 4.109375 -1.875 3.9375 -1.1875 3.6875 -0.828125 C 3.421875 -0.46875 3.03125 -0.28125 2.515625 -0.28125 C 2.15625 -0.28125 2.0625 -0.375 2.0625 -0.734375 Z M 2.0625 -4.828125 "/>
</symbol>
<symbol overflow="visible" id="glyph1-0">
<path style="stroke:none;" d=""/>
</symbol>
<symbol overflow="visible" id="glyph1-1">
<path style="stroke:none;" d="M 1.734375 -2.765625 C 1.609375 -2.8125 1.484375 -2.84375 1.359375 -2.84375 C 0.953125 -2.84375 0.625 -2.453125 0.625 -1.984375 C 0.625 -1.65625 0.796875 -1.296875 1.125 -0.921875 L 1.640625 -0.3125 C 1.90625 -0.015625 2 0.140625 2 0.359375 C 2 0.71875 1.703125 0.984375 1.28125 0.984375 C 1.03125 0.984375 0.796875 0.859375 0.796875 0.71875 C 0.796875 0.6875 0.828125 0.65625 0.890625 0.609375 C 1.03125 0.515625 1.078125 0.4375 1.078125 0.28125 C 1.078125 0.09375 0.953125 -0.015625 0.765625 -0.015625 C 0.515625 -0.015625 0.375 0.125 0.375 0.375 C 0.375 0.796875 0.78125 1.125 1.3125 1.125 C 1.921875 1.125 2.40625 0.71875 2.40625 0.171875 C 2.40625 -0.109375 2.328125 -0.25 1.953125 -0.71875 L 1.96875 -0.75 C 2.0625 -0.703125 2.109375 -0.703125 2.203125 -0.703125 C 2.6875 -0.703125 3.03125 -1.046875 3.03125 -1.578125 C 3.03125 -1.859375 2.921875 -2.140625 2.734375 -2.359375 L 1.890625 -3.40625 C 1.765625 -3.546875 1.703125 -3.734375 1.703125 -3.90625 C 1.703125 -4.265625 1.953125 -4.484375 2.34375 -4.484375 C 2.578125 -4.484375 2.765625 -4.390625 2.765625 -4.265625 C 2.765625 -4.234375 2.734375 -4.1875 2.671875 -4.140625 C 2.5625 -4.046875 2.53125 -3.96875 2.53125 -3.875 C 2.53125 -3.6875 2.65625 -3.5625 2.84375 -3.5625 C 3.0625 -3.5625 3.203125 -3.703125 3.203125 -3.9375 C 3.203125 -4.34375 2.828125 -4.625 2.296875 -4.625 C 1.703125 -4.625 1.28125 -4.265625 1.28125 -3.765625 C 1.28125 -3.453125 1.390625 -3.21875 1.75 -2.78125 Z M 1.484375 -2.703125 C 1.703125 -2.703125 1.953125 -2.53125 2.21875 -2.171875 C 2.53125 -1.78125 2.625 -1.578125 2.625 -1.328125 C 2.625 -1.078125 2.40625 -0.84375 2.171875 -0.84375 C 1.765625 -0.84375 1.015625 -1.75 1.015625 -2.234375 C 1.015625 -2.5 1.234375 -2.703125 1.484375 -2.703125 Z M 1.484375 -2.703125 "/>
</symbol>
<symbol overflow="visible" id="glyph1-2">
<path style="stroke:none;" d="M 2.78125 -0.96875 C 2.609375 -0.625 2.46875 -0.53125 2.09375 -0.53125 L 0.765625 -0.53125 L 0.765625 -0.5625 L 2.109375 -1.890625 C 2.921875 -2.71875 3.140625 -3.0625 3.140625 -3.515625 C 3.140625 -4.1875 2.65625 -4.703125 2.015625 -4.703125 C 1.765625 -4.703125 1.515625 -4.625 1.296875 -4.515625 C 0.953125 -4.328125 0.765625 -4.09375 0.5625 -3.59375 L 0.703125 -3.546875 C 0.953125 -3.984375 1.265625 -4.1875 1.671875 -4.1875 C 2.171875 -4.1875 2.546875 -3.828125 2.546875 -3.34375 C 2.546875 -3.203125 2.53125 -3.0625 2.484375 -2.96875 C 2.3125 -2.59375 2 -2.15625 1.546875 -1.671875 L 0.078125 -0.125 L 0.078125 0 L 2.546875 0 L 2.90625 -0.921875 Z M 2.78125 -0.96875 "/>
</symbol>
<symbol overflow="visible" id="glyph1-3">
<path style="stroke:none;" d="M 0.5625 -0.703125 C 0.359375 -0.703125 0.1875 -0.515625 0.1875 -0.296875 C 0.1875 -0.09375 0.359375 0.078125 0.5625 0.078125 C 0.78125 0.078125 0.953125 -0.09375 0.953125 -0.296875 C 0.953125 -0.515625 0.78125 -0.703125 0.5625 -0.703125 Z M 0.5625 -0.703125 "/>
</symbol>
<symbol overflow="visible" id="glyph1-4">
<path style="stroke:none;" d="M 1.234375 -3.9375 C 1.484375 -4.265625 1.71875 -4.40625 2.015625 -4.40625 C 2.390625 -4.40625 2.640625 -4.15625 2.640625 -3.78125 C 2.640625 -3.484375 2.484375 -3.234375 2.1875 -3.03125 C 1.890625 -2.828125 1.59375 -2.71875 0.96875 -2.625 L 0.96875 -2.515625 C 1.34375 -2.515625 1.4375 -2.5 1.609375 -2.4375 C 2.03125 -2.28125 2.265625 -1.90625 2.265625 -1.359375 C 2.265625 -1.109375 2.21875 -0.859375 2.109375 -0.6875 C 1.953125 -0.40625 1.640625 -0.21875 1.359375 -0.21875 C 1.21875 -0.21875 1.0625 -0.28125 0.859375 -0.4375 C 0.65625 -0.578125 0.546875 -0.625 0.40625 -0.625 C 0.21875 -0.625 0.109375 -0.53125 0.109375 -0.359375 C 0.109375 -0.09375 0.390625 0.046875 0.890625 0.046875 C 1.28125 0.046875 1.625 -0.03125 1.921875 -0.203125 C 2.46875 -0.53125 2.828125 -1.109375 2.828125 -1.734375 C 2.828125 -2.234375 2.625 -2.546875 2.15625 -2.765625 L 2.15625 -2.78125 C 3 -3.109375 3.234375 -3.34375 3.234375 -3.8125 C 3.234375 -4.328125 2.828125 -4.703125 2.265625 -4.703125 C 1.78125 -4.703125 1.359375 -4.421875 1.125 -3.984375 Z M 1.234375 -3.9375 "/>
</symbol>
<symbol overflow="visible" id="glyph1-5">
<path style="stroke:none;" d="M 3.15625 -1.671875 L 2.484375 -1.671875 L 3.328125 -4.703125 L 3.046875 -4.703125 L 0.140625 -1.703125 L 0 -1.234375 L 1.828125 -1.234375 L 1.484375 0 L 2.03125 0 L 2.359375 -1.21875 L 3.046875 -1.21875 Z M 1.921875 -1.671875 L 0.453125 -1.671875 L 0.453125 -1.703125 L 2.5625 -3.921875 L 2.59375 -3.921875 Z M 1.921875 -1.671875 "/>
</symbol>
<symbol overflow="visible" id="glyph1-6">
<path style="stroke:none;" d="M 1.65625 -4.140625 L 3.25 -4.140625 L 3.40625 -4.625 L 1.640625 -4.625 L 0.90625 -3.109375 L 0.90625 -3.015625 C 1.578125 -2.859375 1.8125 -2.78125 2.0625 -2.578125 C 2.28125 -2.40625 2.4375 -2.046875 2.4375 -1.6875 C 2.4375 -0.921875 1.875 -0.25 1.25 -0.25 C 1.09375 -0.25 0.96875 -0.296875 0.765625 -0.4375 C 0.59375 -0.578125 0.5 -0.625 0.390625 -0.625 C 0.21875 -0.625 0.109375 -0.515625 0.109375 -0.34375 C 0.109375 -0.109375 0.375 0.046875 0.84375 0.046875 C 1.984375 0.046875 2.90625 -0.84375 2.90625 -1.953125 C 2.90625 -2.375 2.75 -2.75 2.453125 -3.03125 C 2.203125 -3.28125 1.953125 -3.390625 1.390625 -3.53125 Z M 1.65625 -4.140625 "/>
</symbol>
<symbol overflow="visible" id="glyph1-7">
<path style="stroke:none;" d="M 3.625 -4.765625 C 2.6875 -4.671875 2.21875 -4.484375 1.625 -4.046875 C 0.75 -3.40625 0.203125 -2.40625 0.203125 -1.421875 C 0.203125 -0.53125 0.703125 0.046875 1.484375 0.046875 C 2.421875 0.046875 3.21875 -0.828125 3.21875 -1.890625 C 3.21875 -2.59375 2.71875 -3.109375 2.03125 -3.109375 C 1.828125 -3.109375 1.609375 -3.046875 1.40625 -2.96875 L 1.390625 -2.96875 C 1.875 -3.859375 2.796875 -4.5625 3.625 -4.65625 Z M 1.796875 -2.859375 C 2.28125 -2.859375 2.59375 -2.515625 2.59375 -1.96875 C 2.59375 -1.5 2.421875 -0.953125 2.171875 -0.59375 C 1.953125 -0.28125 1.703125 -0.125 1.40625 -0.125 C 0.984375 -0.125 0.734375 -0.46875 0.734375 -1.046875 C 0.734375 -1.515625 0.875 -2.09375 1.0625 -2.40625 C 1.25 -2.71875 1.46875 -2.859375 1.796875 -2.859375 Z M 1.796875 -2.859375 "/>
</symbol>
<symbol overflow="visible" id="glyph1-8">
<path style="stroke:none;" d="M 3.734375 -4.5625 L 3.6875 -4.625 L 1.078125 -4.625 L 0.515625 -3.6875 L 0.625 -3.625 C 0.953125 -4.015625 1.140625 -4.125 1.546875 -4.125 L 3.09375 -4.125 L 3.09375 -4.109375 L 0.546875 0.0625 L 1.03125 0.0625 Z M 3.734375 -4.5625 "/>
</symbol>
</g>
<clipPath id="clip1">
  <path d="M 0.0429688 0 L 242.222656 0 L 242.222656 23 L 0.0429688 23 Z M 0.0429688 0 "/>
</clipPath>
<clipPath id="clip2">
  <path d="M 0.0429688 23 L 81 23 L 81 95 L 0.0429688 95 Z M 0.0429688 23 "/>
</clipPath>
<clipPath id="clip3">
  <path d="M 161 23 L 242.222656 23 L 242.222656 95 L 161 95 Z M 161 23 "/>
</clipPath>
<clipPath id="clip4">
  <path d="M 0.0429688 94 L 242.222656 94 L 242.222656 122 L 0.0429688 122 Z M 0.0429688 94 "/>
</clipPath>
<clipPath id="clip5">
  <path d="M 0.0429688 122 L 242.222656 122 L 242.222656 150 L 0.0429688 150 Z M 0.0429688 122 "/>
</clipPath>
<clipPath id="clip6">
  <path d="M 0.0429688 150 L 242.222656 150 L 242.222656 174.34375 L 0.0429688 174.34375 Z M 0.0429688 150 "/>
</clipPath>
</defs>
<g id="surface1">
<path style=" stroke:none;fill-rule:nonzero;fill:rgb(93.331909%,94.509888%,98.429871%);fill-opacity:1;" d="M 234.308594 4.226562 L 7.960938 4.226562 C 6.3125 4.226562 4.976562 5.5625 4.976562 7.210938 L 4.976562 12.785156 C 4.976562 14.433594 6.3125 15.769531 7.960938 15.769531 L 234.308594 15.769531 C 235.957031 15.769531 237.292969 14.433594 237.292969 12.785156 L 237.292969 7.210938 C 237.292969 5.5625 235.957031 4.226562 234.308594 4.226562 Z M 234.308594 4.226562 "/>
<g clip-path="url(#clip1)" clip-rule="nonzero">
<path style="fill:none;stroke-width:0.49814;stroke-linecap:butt;stroke-linejoin:miter;stroke:rgb(49.01886%,56.469727%,72.155762%);stroke-opacity:1;stroke-miterlimit:10;" d="M 113.38677 -0.249499 L -113.385923 -0.249499 C -115.037456 -0.249499 -116.375902 -1.587945 -116.375902 -3.239478 L -116.375902 -8.824164 C -116.375902 -10.475697 -115.037456 -11.814143 -113.385923 -11.814143 L 113.38677 -11.814143 C 115.038303 -11.814143 116.376749 -10.475697 116.376749 -8.824164 L 116.376749 -3.239478 C 116.376749 -1.587945 115.038303 -0.249499 113.38677 -0.249499 Z M 113.38677 -0.249499 " transform="matrix(0.998126,0,0,-0.998126,121.134343,3.977531)"/>
</g>
<g style="fill:rgb(0%,0%,0%);fill-opacity:1;">
  <use xlink:href="#glyph0-1" x="98.228356" y="12.691168"/>
  <use xlink:href="#glyph0-2" x="103.08896" y="12.691168"/>
</g>
<g style="fill:rgb(0%,0%,0%);fill-opacity:1;">
  <use xlink:href="#glyph0-3" x="106.477859" y="12.691168"/>
  <use xlink:href="#glyph0-4" x="110.009951" y="12.691168"/>
  <use xlink:href="#glyph0-5" x="112.221486" y="12.691168"/>
  <use xlink:href="#glyph0-6" x="114.43302" y="12.691168"/>
  <use xlink:href="#glyph0-5" x="121.05967" y="12.691168"/>
  <use xlink:href="#glyph0-7" x="123.271205" y="12.691168"/>
  <use xlink:href="#glyph0-8" x="127.694275" y="12.691168"/>
  <use xlink:href="#glyph0-2" x="131.671856" y="12.691168"/>
  <use xlink:href="#glyph0-5" x="135.203948" y="12.691168"/>
  <use xlink:href="#glyph0-3" x="137.415483" y="12.691168"/>
  <use xlink:href="#glyph0-9" x="140.947575" y="12.691168"/>
</g>
<g style="fill:rgb(44.999695%,44.999695%,44.999695%);fill-opacity:1;">
  <use xlink:href="#glyph1-1" x="226.236981" y="11.879692"/>
</g>
<g style="fill:rgb(44.999695%,44.999695%,44.999695%);fill-opacity:1;">
  <use xlink:href="#glyph1-2" x="230.879787" y="11.879692"/>
</g>
<path style=" stroke:none;fill-rule:nonzero;fill:rgb(95.684814%,92.156982%,86.66687%);fill-opacity:1;" d="M 70.914062 30.414062 L 7.253906 30.414062 C 5.605469 30.414062 4.269531 31.75 4.269531 33.394531 L 4.269531 84.015625 C 4.269531 85.664062 5.605469 87 7.253906 87 L 70.914062 87 C 72.5625 87 73.894531 85.664062 73.894531 84.015625 L 73.894531 33.394531 C 73.894531 31.75 72.5625 30.414062 70.914062 30.414062 Z M 70.914062 30.414062 "/>
<g clip-path="url(#clip2)" clip-rule="nonzero">
<path style="fill:none;stroke-width:0.49814;stroke-linecap:butt;stroke-linejoin:miter;stroke:rgb(55.683899%,48.626709%,37.255859%);stroke-opacity:1;stroke-miterlimit:10;" d="M -50.314584 -26.486174 L -114.094282 -26.486174 C -115.745815 -26.486174 -117.084261 -27.82462 -117.084261 -29.47224 L -117.084261 -80.18839 C -117.084261 -81.839923 -115.745815 -83.178369 -114.094282 -83.178369 L -50.314584 -83.178369 C -48.663051 -83.178369 -47.328519 -81.839923 -47.328519 -80.18839 L -47.328519 -29.47224 C -47.328519 -27.82462 -48.663051 -26.486174 -50.314584 -26.486174 Z M -50.314584 -26.486174 " transform="matrix(0.998126,0,0,-0.998126,121.134343,3.977531)"/>
</g>
<g style="fill:rgb(0%,0%,0%);fill-opacity:1;">
  <use xlink:href="#glyph0-1" x="10.137773" y="55.916001"/>
  <use xlink:href="#glyph0-2" x="14.998377" y="55.916001"/>
  <use xlink:href="#glyph0-5" x="18.530469" y="55.916001"/>
  <use xlink:href="#glyph0-6" x="20.742004" y="55.916001"/>
  <use xlink:href="#glyph0-8" x="27.368653" y="55.916001"/>
  <use xlink:href="#glyph0-2" x="31.346234" y="55.916001"/>
  <use xlink:href="#glyph0-10" x="34.878326" y="55.916001"/>
</g>
<g style="fill:rgb(0%,0%,0%);fill-opacity:1;">
  <use xlink:href="#glyph0-11" x="41.504976" y="55.916001"/>
  <use xlink:href="#glyph0-12" x="47.694092" y="55.916001"/>
  <use xlink:href="#glyph0-8" x="52.117162" y="55.916001"/>
  <use xlink:href="#glyph0-7" x="56.094742" y="55.916001"/>
  <use xlink:href="#glyph0-13" x="60.517812" y="55.916001"/>
  <use xlink:href="#glyph0-5" x="63.166881" y="55.916001"/>
  <use xlink:href="#glyph0-14" x="65.378416" y="55.916001"/>
</g>
<g style="fill:rgb(0%,0%,0%);fill-opacity:1;">
  <use xlink:href="#glyph0-15" x="8.288246" y="65.363261"/>
  <use xlink:href="#glyph0-8" x="11.820338" y="65.363261"/>
  <use xlink:href="#glyph0-13" x="15.797919" y="65.363261"/>
  <use xlink:href="#glyph0-5" x="18.446988" y="65.363261"/>
  <use xlink:href="#glyph0-16" x="20.658523" y="65.363261"/>
  <use xlink:href="#glyph0-7" x="24.636103" y="65.363261"/>
</g>
<g style="fill:rgb(0%,0%,0%);fill-opacity:1;">
  <use xlink:href="#glyph0-17" x="31.708242" y="65.363261"/>
</g>
<g style="fill:rgb(0%,0%,0%);fill-opacity:1;">
  <use xlink:href="#glyph0-3" x="36.28246" y="65.363261"/>
  <use xlink:href="#glyph0-18" x="39.814552" y="65.363261"/>
  <use xlink:href="#glyph0-19" x="43.346644" y="65.363261"/>
  <use xlink:href="#glyph0-7" x="47.769714" y="65.363261"/>
  <use xlink:href="#glyph0-5" x="52.192784" y="65.363261"/>
  <use xlink:href="#glyph0-20" x="54.404319" y="65.363261"/>
  <use xlink:href="#glyph0-12" x="58.827389" y="65.363261"/>
  <use xlink:href="#glyph0-3" x="63.250459" y="65.363261"/>
  <use xlink:href="#glyph0-9" x="66.78255" y="65.363261"/>
</g>
<path style="fill-rule:nonzero;fill:rgb(95.684814%,92.156982%,86.66687%);fill-opacity:1;stroke-width:0.49814;stroke-linecap:butt;stroke-linejoin:miter;stroke:rgb(55.683899%,48.626709%,37.255859%);stroke-opacity:1;stroke-miterlimit:10;" d="M 31.890272 -26.486174 L -31.889425 -26.486174 C -33.540958 -26.486174 -34.879404 -27.82462 -34.879404 -29.47224 L -34.879404 -80.18839 C -34.879404 -81.839923 -33.540958 -83.178369 -31.889425 -83.178369 L 31.890272 -83.178369 C 33.541805 -83.178369 34.880251 -81.839923 34.880251 -80.18839 L 34.880251 -29.47224 C 34.880251 -27.82462 33.541805 -26.486174 31.890272 -26.486174 Z M 31.890272 -26.486174 " transform="matrix(0.998126,0,0,-0.998126,121.134343,3.977531)"/>
<g style="fill:rgb(0%,0%,0%);fill-opacity:1;">
  <use xlink:href="#glyph0-21" x="104.158221" y="51.19287"/>
  <use xlink:href="#glyph0-22" x="109.901848" y="51.19287"/>
  <use xlink:href="#glyph0-23" x="114.324918" y="51.19287"/>
</g>
<g style="fill:rgb(0%,0%,0%);fill-opacity:1;">
  <use xlink:href="#glyph0-8" x="118.222947" y="51.19287"/>
  <use xlink:href="#glyph0-7" x="122.200528" y="51.19287"/>
  <use xlink:href="#glyph0-18" x="126.623598" y="51.19287"/>
  <use xlink:href="#glyph0-3" x="130.155689" y="51.19287"/>
  <use xlink:href="#glyph0-22" x="133.687781" y="51.19287"/>
</g>
<g style="fill:rgb(0%,0%,0%);fill-opacity:1;">
  <use xlink:href="#glyph0-11" x="98.81226" y="60.64013"/>
  <use xlink:href="#glyph0-12" x="105.001375" y="60.64013"/>
  <use xlink:href="#glyph0-8" x="109.424445" y="60.64013"/>
  <use xlink:href="#glyph0-7" x="113.402026" y="60.64013"/>
  <use xlink:href="#glyph0-13" x="117.825096" y="60.64013"/>
  <use xlink:href="#glyph0-5" x="120.474165" y="60.64013"/>
  <use xlink:href="#glyph0-15" x="122.6857" y="60.64013"/>
  <use xlink:href="#glyph0-8" x="126.217792" y="60.64013"/>
  <use xlink:href="#glyph0-13" x="130.195373" y="60.64013"/>
  <use xlink:href="#glyph0-5" x="132.844442" y="60.64013"/>
  <use xlink:href="#glyph0-16" x="135.055976" y="60.64013"/>
  <use xlink:href="#glyph0-7" x="139.033557" y="60.64013"/>
</g>
<g style="fill:rgb(0%,0%,0%);fill-opacity:1;">
  <use xlink:href="#glyph0-17" x="102.050179" y="70.086391"/>
</g>
<g style="fill:rgb(0%,0%,0%);fill-opacity:1;">
  <use xlink:href="#glyph0-3" x="106.624397" y="70.086391"/>
  <use xlink:href="#glyph0-18" x="110.156489" y="70.086391"/>
  <use xlink:href="#glyph0-19" x="113.688581" y="70.086391"/>
  <use xlink:href="#glyph0-7" x="118.111651" y="70.086391"/>
  <use xlink:href="#glyph0-5" x="122.534721" y="70.086391"/>
  <use xlink:href="#glyph0-20" x="124.746256" y="70.086391"/>
  <use xlink:href="#glyph0-12" x="129.169326" y="70.086391"/>
  <use xlink:href="#glyph0-3" x="133.592396" y="70.086391"/>
  <use xlink:href="#glyph0-9" x="137.124488" y="70.086391"/>
</g>
<path style=" stroke:none;fill-rule:nonzero;fill:rgb(95.684814%,92.156982%,86.66687%);fill-opacity:1;" d="M 235.015625 30.414062 L 171.355469 30.414062 C 169.707031 30.414062 168.371094 31.75 168.371094 33.394531 L 168.371094 84.015625 C 168.371094 85.664062 169.707031 87 171.355469 87 L 235.015625 87 C 236.664062 87 238 85.664062 238 84.015625 L 238 33.394531 C 238 31.75 236.664062 30.414062 235.015625 30.414062 Z M 235.015625 30.414062 "/>
<g clip-path="url(#clip3)" clip-rule="nonzero">
<path style="fill:none;stroke-width:0.49814;stroke-linecap:butt;stroke-linejoin:miter;stroke:rgb(55.683899%,48.626709%,37.255859%);stroke-opacity:1;stroke-miterlimit:10;" d="M 114.095129 -26.486174 L 50.315431 -26.486174 C 48.663898 -26.486174 47.325452 -27.82462 47.325452 -29.47224 L 47.325452 -80.18839 C 47.325452 -81.839923 48.663898 -83.178369 50.315431 -83.178369 L 114.095129 -83.178369 C 115.746662 -83.178369 117.085108 -81.839923 117.085108 -80.18839 L 117.085108 -29.47224 C 117.085108 -27.82462 115.746662 -26.486174 114.095129 -26.486174 Z M 114.095129 -26.486174 " transform="matrix(0.998126,0,0,-0.998126,121.134343,3.977531)"/>
</g>
<g style="fill:rgb(0%,0%,0%);fill-opacity:1;">
  <use xlink:href="#glyph0-21" x="184.105096" y="51.19287"/>
  <use xlink:href="#glyph0-4" x="189.848723" y="51.19287"/>
  <use xlink:href="#glyph0-13" x="192.060258" y="51.19287"/>
  <use xlink:href="#glyph0-3" x="194.709327" y="51.19287"/>
  <use xlink:href="#glyph0-2" x="198.241419" y="51.19287"/>
</g>
<g style="fill:rgb(0%,0%,0%);fill-opacity:1;">
  <use xlink:href="#glyph0-7" x="201.654183" y="51.19287"/>
  <use xlink:href="#glyph0-8" x="206.077253" y="51.19287"/>
  <use xlink:href="#glyph0-13" x="210.054834" y="51.19287"/>
  <use xlink:href="#glyph0-5" x="212.703903" y="51.19287"/>
</g>
<g style="fill:rgb(0%,0%,0%);fill-opacity:1;">
  <use xlink:href="#glyph0-23" x="214.835886" y="51.19287"/>
</g>
<g style="fill:rgb(0%,0%,0%);fill-opacity:1;">
  <use xlink:href="#glyph0-3" x="218.733915" y="51.19287"/>
</g>
<g style="fill:rgb(0%,0%,0%);fill-opacity:1;">
  <use xlink:href="#glyph0-24" x="185.289871" y="60.64013"/>
  <use xlink:href="#glyph0-12" x="191.033498" y="60.64013"/>
  <use xlink:href="#glyph0-6" x="195.456568" y="60.64013"/>
  <use xlink:href="#glyph0-3" x="202.083218" y="60.64013"/>
  <use xlink:href="#glyph0-2" x="205.61531" y="60.64013"/>
  <use xlink:href="#glyph0-5" x="209.147402" y="60.64013"/>
  <use xlink:href="#glyph0-18" x="211.358936" y="60.64013"/>
  <use xlink:href="#glyph0-8" x="214.891028" y="60.64013"/>
  <use xlink:href="#glyph0-4" x="218.868609" y="60.64013"/>
</g>
<g style="fill:rgb(0%,0%,0%);fill-opacity:1;">
  <use xlink:href="#glyph0-25" x="175.85958" y="70.086391"/>
  <use xlink:href="#glyph0-3" x="181.603206" y="70.086391"/>
  <use xlink:href="#glyph0-26" x="185.135298" y="70.086391"/>
  <use xlink:href="#glyph0-2" x="189.558368" y="70.086391"/>
</g>
<g style="fill:rgb(0%,0%,0%);fill-opacity:1;">
  <use xlink:href="#glyph0-3" x="192.947267" y="70.086391"/>
  <use xlink:href="#glyph0-9" x="196.479359" y="70.086391"/>
  <use xlink:href="#glyph0-3" x="199.573917" y="70.086391"/>
  <use xlink:href="#glyph0-7" x="203.106009" y="70.086391"/>
  <use xlink:href="#glyph0-13" x="207.529079" y="70.086391"/>
  <use xlink:href="#glyph0-8" x="210.178147" y="70.086391"/>
  <use xlink:href="#glyph0-13" x="214.155728" y="70.086391"/>
  <use xlink:href="#glyph0-5" x="216.804797" y="70.086391"/>
  <use xlink:href="#glyph0-16" x="219.016332" y="70.086391"/>
  <use xlink:href="#glyph0-7" x="222.993913" y="70.086391"/>
  <use xlink:href="#glyph0-9" x="227.416983" y="70.086391"/>
</g>
<g style="fill:rgb(44.999695%,44.999695%,44.999695%);fill-opacity:1;">
  <use xlink:href="#glyph1-1" x="57.622606" y="38.06552"/>
</g>
<g style="fill:rgb(44.999695%,44.999695%,44.999695%);fill-opacity:1;">
  <use xlink:href="#glyph1-2" x="62.265412" y="38.06552"/>
  <use xlink:href="#glyph1-3" x="65.745777" y="38.06552"/>
  <use xlink:href="#glyph1-2" x="67.485959" y="38.06552"/>
</g>
<g style="fill:rgb(44.999695%,44.999695%,44.999695%);fill-opacity:1;">
  <use xlink:href="#glyph1-1" x="144.893727" y="38.06552"/>
</g>
<g style="fill:rgb(44.999695%,44.999695%,44.999695%);fill-opacity:1;">
  <use xlink:href="#glyph1-4" x="149.536534" y="38.06552"/>
</g>
<g style="fill:rgb(44.999695%,44.999695%,44.999695%);fill-opacity:1;">
  <use xlink:href="#glyph1-1" x="226.943654" y="38.06552"/>
</g>
<g style="fill:rgb(44.999695%,44.999695%,44.999695%);fill-opacity:1;">
  <use xlink:href="#glyph1-5" x="231.58646" y="38.06552"/>
</g>
<path style=" stroke:none;fill-rule:nonzero;fill:rgb(93.331909%,94.509888%,98.429871%);fill-opacity:1;" d="M 234.308594 101.644531 L 7.960938 101.644531 C 6.3125 101.644531 4.976562 102.980469 4.976562 104.628906 L 4.976562 111.722656 C 4.976562 113.371094 6.3125 114.707031 7.960938 114.707031 L 234.308594 114.707031 C 235.957031 114.707031 237.292969 113.371094 237.292969 111.722656 L 237.292969 104.628906 C 237.292969 102.980469 235.957031 101.644531 234.308594 101.644531 Z M 234.308594 101.644531 "/>
<g clip-path="url(#clip4)" clip-rule="nonzero">
<path style="fill:none;stroke-width:0.49814;stroke-linecap:butt;stroke-linejoin:miter;stroke:rgb(49.01886%,56.469727%,72.155762%);stroke-opacity:1;stroke-miterlimit:10;" d="M 113.38677 -97.8504 L -113.385923 -97.8504 C -115.037456 -97.8504 -116.375902 -99.188846 -116.375902 -100.840379 L -116.375902 -107.94745 C -116.375902 -109.598983 -115.037456 -110.937429 -113.385923 -110.937429 L 113.38677 -110.937429 C 115.038303 -110.937429 116.376749 -109.598983 116.376749 -107.94745 L 116.376749 -100.840379 C 116.376749 -99.188846 115.038303 -97.8504 113.38677 -97.8504 Z M 113.38677 -97.8504 " transform="matrix(0.998126,0,0,-0.998126,121.134343,3.977531)"/>
</g>
<g style="fill:rgb(0%,0%,0%);fill-opacity:1;">
  <use xlink:href="#glyph0-27" x="40.071563" y="110.108238"/>
  <use xlink:href="#glyph0-8" x="46.260679" y="110.108238"/>
  <use xlink:href="#glyph0-2" x="50.23826" y="110.108238"/>
  <use xlink:href="#glyph0-22" x="53.770352" y="110.108238"/>
</g>
<g style="fill:rgb(0%,0%,0%);fill-opacity:1;">
  <use xlink:href="#glyph0-28" x="58.074094" y="110.108238"/>
  <use xlink:href="#glyph0-8" x="63.817721" y="110.108238"/>
  <use xlink:href="#glyph0-2" x="67.795302" y="110.108238"/>
</g>
<g style="fill:rgb(0%,0%,0%);fill-opacity:1;">
  <use xlink:href="#glyph0-3" x="71.184201" y="110.108238"/>
</g>
<g style="fill:rgb(0%,0%,0%);fill-opacity:1;">
  <use xlink:href="#glyph0-29" x="77.365361" y="110.108238"/>
  <use xlink:href="#glyph0-8" x="82.671454" y="110.108238"/>
  <use xlink:href="#glyph0-7" x="86.649035" y="110.108238"/>
  <use xlink:href="#glyph0-22" x="91.072105" y="110.108238"/>
  <use xlink:href="#glyph0-9" x="95.495175" y="110.108238"/>
  <use xlink:href="#glyph0-18" x="98.589733" y="110.108238"/>
  <use xlink:href="#glyph0-8" x="102.121825" y="110.108238"/>
  <use xlink:href="#glyph0-26" x="106.099406" y="110.108238"/>
  <use xlink:href="#glyph0-3" x="110.522476" y="110.108238"/>
</g>
<g style="fill:rgb(0%,0%,0%);fill-opacity:1;">
  <use xlink:href="#glyph0-30" x="116.703636" y="110.108238"/>
</g>
<g style="fill:rgb(0%,0%,0%);fill-opacity:1;">
  <use xlink:href="#glyph0-31" x="125.98731" y="110.108238"/>
  <use xlink:href="#glyph0-16" x="130.41038" y="110.108238"/>
  <use xlink:href="#glyph0-32" x="134.387961" y="110.108238"/>
  <use xlink:href="#glyph0-13" x="137.03703" y="110.108238"/>
  <use xlink:href="#glyph0-28" x="139.686099" y="110.108238"/>
  <use xlink:href="#glyph0-8" x="145.429725" y="110.108238"/>
  <use xlink:href="#glyph0-2" x="149.407306" y="110.108238"/>
</g>
<g style="fill:rgb(0%,0%,0%);fill-opacity:1;">
  <use xlink:href="#glyph0-3" x="152.796205" y="110.108238"/>
</g>
<g style="fill:rgb(0%,0%,0%);fill-opacity:1;">
  <use xlink:href="#glyph0-33" x="158.977366" y="110.108238"/>
  <use xlink:href="#glyph0-2" x="163.83797" y="110.108238"/>
  <use xlink:href="#glyph0-8" x="167.370062" y="110.108238"/>
  <use xlink:href="#glyph0-6" x="171.347642" y="110.108238"/>
  <use xlink:href="#glyph0-3" x="177.974292" y="110.108238"/>
  <use xlink:href="#glyph0-28" x="181.506384" y="110.108238"/>
</g>
<g style="fill:rgb(0%,0%,0%);fill-opacity:1;">
  <use xlink:href="#glyph0-16" x="187.170459" y="110.108238"/>
  <use xlink:href="#glyph0-2" x="191.14804" y="110.108238"/>
  <use xlink:href="#glyph0-34" x="194.680132" y="110.108238"/>
  <use xlink:href="#glyph0-9" x="199.103202" y="110.108238"/>
</g>
<g style="fill:rgb(44.999695%,44.999695%,44.999695%);fill-opacity:1;">
  <use xlink:href="#glyph1-1" x="226.236981" y="109.296762"/>
</g>
<g style="fill:rgb(44.999695%,44.999695%,44.999695%);fill-opacity:1;">
  <use xlink:href="#glyph1-6" x="230.879787" y="109.296762"/>
</g>
<path style=" stroke:none;fill-rule:nonzero;fill:rgb(93.331909%,94.509888%,98.429871%);fill-opacity:1;" d="M 234.308594 129.351562 L 7.960938 129.351562 C 6.3125 129.351562 4.976562 130.6875 4.976562 132.335938 L 4.976562 139.429688 C 4.976562 141.078125 6.3125 142.414062 7.960938 142.414062 L 234.308594 142.414062 C 235.957031 142.414062 237.292969 141.078125 237.292969 139.429688 L 237.292969 132.335938 C 237.292969 130.6875 235.957031 129.351562 234.308594 129.351562 Z M 234.308594 129.351562 "/>
<g clip-path="url(#clip5)" clip-rule="nonzero">
<path style="fill:none;stroke-width:0.49814;stroke-linecap:butt;stroke-linejoin:miter;stroke:rgb(49.01886%,56.469727%,72.155762%);stroke-opacity:1;stroke-miterlimit:10;" d="M 113.38677 -125.60946 L -113.385923 -125.60946 C -115.037456 -125.60946 -116.375902 -126.947906 -116.375902 -128.599439 L -116.375902 -135.706509 C -116.375902 -137.358042 -115.037456 -138.696488 -113.385923 -138.696488 L 113.38677 -138.696488 C 115.038303 -138.696488 116.376749 -137.358042 116.376749 -135.706509 L 116.376749 -128.599439 C 116.376749 -126.947906 115.038303 -125.60946 113.38677 -125.60946 Z M 113.38677 -125.60946 " transform="matrix(0.998126,0,0,-0.998126,121.134343,3.977531)"/>
</g>
<g style="fill:rgb(0%,0%,0%);fill-opacity:1;">
  <use xlink:href="#glyph0-21" x="99.795413" y="137.814212"/>
</g>
<g style="fill:rgb(0%,0%,0%);fill-opacity:1;">
  <use xlink:href="#glyph0-26" x="105.340161" y="137.814212"/>
  <use xlink:href="#glyph0-26" x="109.763231" y="137.814212"/>
  <use xlink:href="#glyph0-4" x="114.186301" y="137.814212"/>
  <use xlink:href="#glyph0-5" x="116.397836" y="137.814212"/>
  <use xlink:href="#glyph0-18" x="118.609371" y="137.814212"/>
  <use xlink:href="#glyph0-8" x="122.141463" y="137.814212"/>
  <use xlink:href="#glyph0-13" x="126.119044" y="137.814212"/>
  <use xlink:href="#glyph0-5" x="128.768112" y="137.814212"/>
  <use xlink:href="#glyph0-16" x="130.979647" y="137.814212"/>
  <use xlink:href="#glyph0-7" x="134.957228" y="137.814212"/>
  <use xlink:href="#glyph0-9" x="139.380298" y="137.814212"/>
</g>
<g style="fill:rgb(44.999695%,44.999695%,44.999695%);fill-opacity:1;">
  <use xlink:href="#glyph1-1" x="226.236981" y="137.002736"/>
</g>
<g style="fill:rgb(44.999695%,44.999695%,44.999695%);fill-opacity:1;">
  <use xlink:href="#glyph1-7" x="230.879787" y="137.002736"/>
</g>
<path style=" stroke:none;fill-rule:nonzero;fill:rgb(93.331909%,94.509888%,98.429871%);fill-opacity:1;" d="M 234.308594 157.058594 L 7.960938 157.058594 C 6.3125 157.058594 4.976562 158.394531 4.976562 160.039062 L 4.976562 167.136719 C 4.976562 168.785156 6.3125 170.121094 7.960938 170.121094 L 234.308594 170.121094 C 235.957031 170.121094 237.292969 168.785156 237.292969 167.136719 L 237.292969 160.039062 C 237.292969 158.394531 235.957031 157.058594 234.308594 157.058594 Z M 234.308594 157.058594 "/>
<g clip-path="url(#clip6)" clip-rule="nonzero">
<path style="fill:none;stroke-width:0.49814;stroke-linecap:butt;stroke-linejoin:miter;stroke:rgb(49.01886%,56.469727%,72.155762%);stroke-opacity:1;stroke-miterlimit:10;" d="M 113.38677 -153.368519 L -113.385923 -153.368519 C -115.037456 -153.368519 -116.375902 -154.706965 -116.375902 -156.354585 L -116.375902 -163.465569 C -116.375902 -165.117102 -115.037456 -166.455548 -113.385923 -166.455548 L 113.38677 -166.455548 C 115.038303 -166.455548 116.376749 -165.117102 116.376749 -163.465569 L 116.376749 -156.354585 C 116.376749 -154.706965 115.038303 -153.368519 113.38677 -153.368519 Z M 113.38677 -153.368519 " transform="matrix(0.998126,0,0,-0.998126,121.134343,3.977531)"/>
</g>
<g style="fill:rgb(0%,0%,0%);fill-opacity:1;">
  <use xlink:href="#glyph0-35" x="66.260386" y="165.520185"/>
  <use xlink:href="#glyph0-19" x="72.004012" y="165.520185"/>
  <use xlink:href="#glyph0-8" x="76.427082" y="165.520185"/>
  <use xlink:href="#glyph0-4" x="80.404663" y="165.520185"/>
  <use xlink:href="#glyph0-4" x="82.616198" y="165.520185"/>
  <use xlink:href="#glyph0-3" x="84.827733" y="165.520185"/>
  <use xlink:href="#glyph0-7" x="88.359825" y="165.520185"/>
  <use xlink:href="#glyph0-36" x="92.782895" y="165.520185"/>
  <use xlink:href="#glyph0-3" x="96.760476" y="165.520185"/>
  <use xlink:href="#glyph0-9" x="100.292568" y="165.520185"/>
</g>
<g style="fill:rgb(0%,0%,0%);fill-opacity:1;">
  <use xlink:href="#glyph0-30" x="106.036194" y="165.520185"/>
</g>
<g style="fill:rgb(0%,0%,0%);fill-opacity:1;">
  <use xlink:href="#glyph0-33" x="115.319868" y="165.520185"/>
  <use xlink:href="#glyph0-12" x="120.180472" y="165.520185"/>
  <use xlink:href="#glyph0-13" x="124.603542" y="165.520185"/>
  <use xlink:href="#glyph0-12" x="127.252611" y="165.520185"/>
  <use xlink:href="#glyph0-2" x="131.675681" y="165.520185"/>
</g>
<g style="fill:rgb(0%,0%,0%);fill-opacity:1;">
  <use xlink:href="#glyph0-3" x="135.06458" y="165.520185"/>
</g>
<g style="fill:rgb(0%,0%,0%);fill-opacity:1;">
  <use xlink:href="#glyph0-37" x="141.24574" y="165.520185"/>
  <use xlink:href="#glyph0-5" x="146.989367" y="165.520185"/>
  <use xlink:href="#glyph0-2" x="149.200902" y="165.520185"/>
</g>
<g style="fill:rgb(0%,0%,0%);fill-opacity:1;">
  <use xlink:href="#glyph0-3" x="152.589801" y="165.520185"/>
  <use xlink:href="#glyph0-18" x="156.121893" y="165.520185"/>
  <use xlink:href="#glyph0-13" x="159.653985" y="165.520185"/>
  <use xlink:href="#glyph0-5" x="162.303053" y="165.520185"/>
  <use xlink:href="#glyph0-16" x="164.514588" y="165.520185"/>
  <use xlink:href="#glyph0-7" x="168.492169" y="165.520185"/>
  <use xlink:href="#glyph0-9" x="172.915239" y="165.520185"/>
</g>
<g style="fill:rgb(44.999695%,44.999695%,44.999695%);fill-opacity:1;">
  <use xlink:href="#glyph1-1" x="226.236981" y="164.708709"/>
</g>
<g style="fill:rgb(44.999695%,44.999695%,44.999695%);fill-opacity:1;">
  <use xlink:href="#glyph1-8" x="230.879787" y="164.708709"/>
</g>
<path style="fill:none;stroke-width:0.59776;stroke-linecap:butt;stroke-linejoin:miter;stroke:rgb(44.999695%,44.999695%,44.999695%);stroke-opacity:1;stroke-miterlimit:10;" d="M -0.00153337 -12.064613 L -0.00153337 -19.148202 " transform="matrix(0.998126,0,0,-0.998126,121.134343,3.977531)"/>
<path style="fill:none;stroke-width:0.59776;stroke-linecap:butt;stroke-linejoin:miter;stroke:rgb(44.999695%,44.999695%,44.999695%);stroke-opacity:1;stroke-miterlimit:10;" d="M -82.20639 -19.148202 L 82.207237 -19.148202 " transform="matrix(0.998126,0,0,-0.998126,121.134343,3.977531)"/>
<path style="fill:none;stroke-width:0.59776;stroke-linecap:butt;stroke-linejoin:miter;stroke:rgb(44.999695%,44.999695%,44.999695%);stroke-opacity:1;stroke-miterlimit:10;" d="M -82.20639 -19.148202 L -82.20639 -23.793628 " transform="matrix(0.998126,0,0,-0.998126,121.134343,3.977531)"/>
<path style="fill-rule:nonzero;fill:rgb(44.999695%,44.999695%,44.999695%);fill-opacity:1;stroke-width:0.59776;stroke-linecap:butt;stroke-linejoin:miter;stroke:rgb(44.999695%,44.999695%,44.999695%);stroke-opacity:1;stroke-miterlimit:10;" d="M 3.135347 -0.000790007 L 0.963307 0.824976 L 1.691234 -0.000790007 L 0.963307 -0.822643 Z M 3.135347 -0.000790007 " transform="matrix(0,0.998126,0.998126,0,39.08282,26.186936)"/>
<path style="fill:none;stroke-width:0.59776;stroke-linecap:butt;stroke-linejoin:miter;stroke:rgb(44.999695%,44.999695%,44.999695%);stroke-opacity:1;stroke-miterlimit:10;" d="M -0.00153337 -19.148202 L -0.00153337 -23.793628 " transform="matrix(0.998126,0,0,-0.998126,121.134343,3.977531)"/>
<path style="fill-rule:nonzero;fill:rgb(44.999695%,44.999695%,44.999695%);fill-opacity:1;stroke-width:0.59776;stroke-linecap:butt;stroke-linejoin:miter;stroke:rgb(44.999695%,44.999695%,44.999695%);stroke-opacity:1;stroke-miterlimit:10;" d="M 3.135347 -0.00153337 L 0.963307 0.824233 L 1.691234 -0.00153337 L 0.963307 -0.823386 Z M 3.135347 -0.00153337 " transform="matrix(0,0.998126,0.998126,0,121.134343,26.186936)"/>
<path style="fill:none;stroke-width:0.59776;stroke-linecap:butt;stroke-linejoin:miter;stroke:rgb(44.999695%,44.999695%,44.999695%);stroke-opacity:1;stroke-miterlimit:10;" d="M 82.207237 -19.148202 L 82.207237 -23.793628 " transform="matrix(0.998126,0,0,-0.998126,121.134343,3.977531)"/>
<path style="fill-rule:nonzero;fill:rgb(44.999695%,44.999695%,44.999695%);fill-opacity:1;stroke-width:0.59776;stroke-linecap:butt;stroke-linejoin:miter;stroke:rgb(44.999695%,44.999695%,44.999695%);stroke-opacity:1;stroke-miterlimit:10;" d="M 3.135347 0.00163686 L 0.963307 0.82349 L 1.691234 0.00163686 L 0.963307 -0.82413 Z M 3.135347 0.00163686 " transform="matrix(0,0.998126,0.998126,0,203.185866,26.186936)"/>
<path style="fill:none;stroke-width:0.59776;stroke-linecap:butt;stroke-linejoin:miter;stroke:rgb(44.999695%,44.999695%,44.999695%);stroke-opacity:1;stroke-miterlimit:10;" d="M -82.20639 -83.428839 L -82.20639 -90.516341 " transform="matrix(0.998126,0,0,-0.998126,121.134343,3.977531)"/>
<path style="fill:none;stroke-width:0.59776;stroke-linecap:butt;stroke-linejoin:miter;stroke:rgb(44.999695%,44.999695%,44.999695%);stroke-opacity:1;stroke-miterlimit:10;" d="M -0.00153337 -83.428839 L -0.00153337 -90.516341 " transform="matrix(0.998126,0,0,-0.998126,121.134343,3.977531)"/>
<path style="fill:none;stroke-width:0.59776;stroke-linecap:butt;stroke-linejoin:miter;stroke:rgb(44.999695%,44.999695%,44.999695%);stroke-opacity:1;stroke-miterlimit:10;" d="M 82.207237 -83.428839 L 82.207237 -90.516341 " transform="matrix(0.998126,0,0,-0.998126,121.134343,3.977531)"/>
<path style="fill:none;stroke-width:0.59776;stroke-linecap:butt;stroke-linejoin:miter;stroke:rgb(44.999695%,44.999695%,44.999695%);stroke-opacity:1;stroke-miterlimit:10;" d="M -82.20639 -90.516341 L 82.207237 -90.516341 " transform="matrix(0.998126,0,0,-0.998126,121.134343,3.977531)"/>
<path style="fill:none;stroke-width:0.59776;stroke-linecap:butt;stroke-linejoin:miter;stroke:rgb(44.999695%,44.999695%,44.999695%);stroke-opacity:1;stroke-miterlimit:10;" d="M -0.00153337 -90.516341 L -0.00153337 -95.157853 " transform="matrix(0.998126,0,0,-0.998126,121.134343,3.977531)"/>
<path style="fill-rule:nonzero;fill:rgb(44.999695%,44.999695%,44.999695%);fill-opacity:1;stroke-width:0.59776;stroke-linecap:butt;stroke-linejoin:miter;stroke:rgb(44.999695%,44.999695%,44.999695%);stroke-opacity:1;stroke-miterlimit:10;" d="M 3.134412 -0.00153337 L 0.966286 0.824233 L 1.6903 -0.00153337 L 0.966286 -0.823386 Z M 3.134412 -0.00153337 " transform="matrix(0,0.998126,0.998126,0,121.134343,97.418337)"/>
<path style="fill:none;stroke-width:0.59776;stroke-linecap:butt;stroke-linejoin:miter;stroke:rgb(44.999695%,44.999695%,44.999695%);stroke-opacity:1;stroke-miterlimit:10;" d="M -0.00153337 -111.187898 L -0.00153337 -122.916913 " transform="matrix(0.998126,0,0,-0.998126,121.134343,3.977531)"/>
<path style="fill-rule:nonzero;fill:rgb(44.999695%,44.999695%,44.999695%);fill-opacity:1;stroke-width:0.59776;stroke-linecap:butt;stroke-linejoin:miter;stroke:rgb(44.999695%,44.999695%,44.999695%);stroke-opacity:1;stroke-miterlimit:10;" d="M 3.134922 -0.00153337 L 0.966796 0.824233 L 1.690809 -0.00153337 L 0.966796 -0.823386 Z M 3.134922 -0.00153337 " transform="matrix(0,0.998126,0.998126,0,121.134343,125.12486)"/>
<path style="fill:none;stroke-width:0.59776;stroke-linecap:butt;stroke-linejoin:miter;stroke:rgb(44.999695%,44.999695%,44.999695%);stroke-opacity:1;stroke-miterlimit:10;" d="M -0.00153337 -138.946958 L -0.00153337 -150.675973 " transform="matrix(0.998126,0,0,-0.998126,121.134343,3.977531)"/>
<path style="fill-rule:nonzero;fill:rgb(44.999695%,44.999695%,44.999695%);fill-opacity:1;stroke-width:0.59776;stroke-linecap:butt;stroke-linejoin:miter;stroke:rgb(44.999695%,44.999695%,44.999695%);stroke-opacity:1;stroke-miterlimit:10;" d="M 3.135422 -0.00153337 L 0.963382 0.824233 L 1.691309 -0.00153337 L 0.963382 -0.823386 Z M 3.135422 -0.00153337 " transform="matrix(0,0.998126,0.998126,0,121.134343,152.831392)"/>
</g>
</svg>
